<svg width="45" height="44" viewBox="0 0 45 44" fill="none" xmlns="http://www.w3.org/2000/svg">
<path fill-rule="evenodd" clip-rule="evenodd" d="M15.5297 12.6914C15.5297 11.6223 15.9544 10.5969 16.7104 9.84088C17.4664 9.08488 18.4918 8.66016 19.5609 8.66016H25.2351C26.3043 8.66016 27.3297 9.08488 28.0857 9.84088C28.8417 10.5969 29.2664 11.6223 29.2664 12.6914V16.7227H30.7588C31.2882 16.7227 31.8124 16.8269 32.3015 17.0295C32.7906 17.2321 33.235 17.529 33.6094 17.9034C33.9837 18.2777 34.2806 18.7221 34.4832 19.2112C34.6858 19.7003 34.7901 20.2245 34.7901 20.7539V24.7852H36.2826C37.3517 24.7852 38.3771 25.2099 39.1331 25.9659C39.8891 26.7219 40.3138 27.7473 40.3138 28.8164V34.1914C40.3138 34.5478 40.1722 34.8896 39.9202 35.1416C39.6682 35.3936 39.3264 35.5352 38.9701 35.5352H5.82422C5.46783 35.5352 5.12605 35.3936 4.87404 35.1416C4.62204 34.8896 4.48047 34.5478 4.48047 34.1914V28.8164C4.48047 27.7473 4.90519 26.7219 5.66119 25.9659C6.4172 25.2099 7.44256 24.7852 8.51172 24.7852H10.006V20.7539C10.006 19.6848 10.4307 18.6594 11.1867 17.9034C11.9427 17.1474 12.9681 16.7227 14.0372 16.7227H15.5297V12.6914ZM18.2172 16.7227H26.5789V12.6914C26.5789 12.335 26.4373 11.9932 26.1853 11.7412C25.9333 11.4892 25.5915 11.3477 25.2351 11.3477H19.5609C19.2045 11.3477 18.8628 11.4892 18.6108 11.7412C18.3588 11.9932 18.2172 12.335 18.2172 12.6914V16.7227ZM14.0372 19.4102C13.6808 19.4102 13.339 19.5517 13.087 19.8037C12.835 20.0557 12.6935 20.3975 12.6935 20.7539V24.7852H21.0552V19.4102H14.0372ZM23.7427 19.4102V24.7852H32.1026V20.7539C32.1026 20.3975 31.961 20.0557 31.709 19.8037C31.457 19.5517 31.1152 19.4102 30.7588 19.4102H23.7427ZM8.51172 27.4727C8.15533 27.4727 7.81355 27.6142 7.56154 27.8662C7.30954 28.1182 7.16797 28.46 7.16797 28.8164V32.8477H15.5297V27.4727H8.51172ZM18.2172 27.4727V32.8477H26.5789V27.4727H18.2172ZM29.2664 27.4727V32.8477H37.6263V28.8164C37.6263 28.46 37.4847 28.1182 37.2327 27.8662C36.9807 27.6142 36.6389 27.4727 36.2826 27.4727H29.2664Z" fill="#B0E788"/>
</svg>
