<svg width="44" height="44" viewBox="0 0 44 44" fill="none" xmlns="http://www.w3.org/2000/svg">
<g clip-path="url(#clip0_13935_84521)">
<path d="M32.4869 1.20409L33.2351 3.50674C33.4674 4.20735 33.8603 4.84389 34.3826 5.36543C34.9049 5.88697 35.542 6.27905 36.243 6.51029L38.5456 7.25849L38.5908 7.27139C38.7684 7.33391 38.9222 7.45001 39.031 7.60367C39.1398 7.75732 39.1982 7.94096 39.1982 8.12924C39.1982 8.31752 39.1398 8.50116 39.031 8.65482C38.9222 8.80848 38.7684 8.92457 38.5908 8.98709L36.2881 9.73529C35.5872 9.96654 34.9501 10.3586 34.4278 10.8802C33.9055 11.4017 33.5125 12.0382 33.2803 12.7388L32.5321 15.0393C32.4695 15.2169 32.3535 15.3708 32.1998 15.4796C32.0461 15.5884 31.8625 15.6468 31.6742 15.6468C31.4859 15.6468 31.3023 15.5884 31.1486 15.4796C30.995 15.3708 30.8789 15.2169 30.8164 15.0393L30.066 12.7388C29.8356 12.0367 29.4439 11.3983 28.9222 10.8748C28.4003 10.3503 27.7625 9.9556 27.0603 9.72239L24.7577 8.97419C24.5801 8.91167 24.4263 8.79558 24.3174 8.64192C24.2086 8.48826 24.1502 8.30462 24.1502 8.11634C24.1502 7.92806 24.2086 7.74442 24.3174 7.59077C24.4263 7.43711 24.5801 7.32101 24.7577 7.25849L27.0603 6.51029C27.7525 6.27279 28.3802 5.87792 28.8939 5.35674C29.4076 4.83556 29.7934 4.20229 30.0209 3.50674L30.7691 1.20624C30.8311 1.0279 30.9472 0.873295 31.1011 0.76389C31.255 0.654484 31.4392 0.595703 31.628 0.595703C31.8168 0.595703 32.001 0.654484 32.1549 0.76389C32.3088 0.873295 32.4249 1.02575 32.4869 1.20409ZM43.0327 18.2579L41.3858 17.7247C40.886 17.5576 40.432 17.2766 40.0596 16.9038C39.6872 16.531 39.4066 16.0767 39.2401 15.5768L38.7026 13.9342C38.6581 13.8072 38.5752 13.6972 38.4654 13.6194C38.3556 13.5415 38.2244 13.4997 38.0898 13.4997C37.9552 13.4997 37.824 13.5415 37.7142 13.6194C37.6045 13.6972 37.5216 13.8072 37.4771 13.9342L36.9439 15.5768C36.7803 16.0735 36.5043 16.5258 36.1374 16.8983C35.7704 17.2709 35.3224 17.5537 34.8283 17.7247L33.1835 18.2579C33.0575 18.3034 32.9486 18.3866 32.8716 18.4963C32.7946 18.6059 32.7533 18.7367 32.7533 18.8706C32.7533 19.0046 32.7946 19.1354 32.8716 19.245C32.9486 19.3547 33.0575 19.4379 33.1835 19.4834L34.8283 20.0187C35.3295 20.1859 35.7848 20.4677 36.158 20.8416C36.5313 21.2156 36.8121 21.6715 36.9783 22.173L37.5115 23.8156C37.556 23.9426 37.6389 24.0527 37.7486 24.1305C37.8584 24.2084 37.9896 24.2502 38.1242 24.2502C38.2588 24.2502 38.39 24.2084 38.4998 24.1305C38.6096 24.0527 38.6925 23.9426 38.737 23.8156L39.2723 22.173C39.4391 21.6729 39.72 21.2185 40.0928 20.8457C40.4656 20.4729 40.92 20.192 41.4202 20.0252L43.0649 19.492C43.1909 19.4465 43.2999 19.3633 43.3769 19.2536C43.4539 19.144 43.4952 19.0132 43.4952 18.8792C43.4952 18.7453 43.4539 18.6145 43.3769 18.5049C43.2999 18.3952 43.1909 18.312 43.0649 18.2665L43.0327 18.2579ZM13.3992 7.04779H22.225C22.0888 7.39058 22.0124 7.75419 21.9992 8.12279C22.0035 8.49259 22.0745 8.85809 22.2078 9.19779H13.3992C12.2588 9.19779 11.1651 9.65083 10.3587 10.4572C9.55225 11.2636 9.09922 12.3574 9.09922 13.4978V30.6978C9.09922 31.8382 9.55225 32.9319 10.3587 33.7383C11.1651 34.5448 12.2588 34.9978 13.3992 34.9978H30.5992C31.7396 34.9978 32.8334 34.5448 33.6398 33.7383C34.4462 32.9319 34.8992 31.8382 34.8992 30.6978V22.7363L34.9422 22.8503L35.4582 24.4843C35.5919 24.8619 35.8022 25.2077 36.076 25.5C36.3498 25.7923 36.6812 26.0248 37.0492 26.1828V30.6978C37.0492 32.4084 36.3697 34.049 35.1601 35.2586C33.9504 36.4682 32.3099 37.1478 30.5992 37.1478H13.3992C11.6886 37.1478 10.048 36.4682 8.83838 35.2586C7.62877 34.049 6.94922 32.4084 6.94922 30.6978V13.4978C6.94922 11.7871 7.62877 10.1466 8.83838 8.93695C10.048 7.72734 11.6886 7.04779 13.3992 7.04779ZM12.3242 11.3478H25.2006L26.5142 11.7778C26.8355 11.8733 27.13 12.0427 27.3742 12.2723L27.5032 12.4013C27.744 12.6313 27.9332 12.9108 28.0622 13.2183V13.4118L28.0902 13.4978H12.3242C12.0391 13.4978 11.7657 13.3845 11.5641 13.1829C11.3625 12.9813 11.2492 12.7079 11.2492 12.4228C11.2492 12.1377 11.3625 11.8643 11.5641 11.6627C11.7657 11.4611 12.0391 11.3478 12.3242 11.3478ZM20.9242 19.9478H30.8121C30.8909 20.1384 30.9919 20.3176 31.1152 20.4853C31.4485 20.9604 31.9236 21.3216 32.4697 21.5173L32.6052 21.5603C32.5108 21.7237 32.3751 21.8594 32.2117 21.9538C32.0483 22.0481 31.8629 22.0978 31.6742 22.0978H20.9242C20.6391 22.0978 20.3657 21.9845 20.1641 21.7829C19.9625 21.5813 19.8492 21.3079 19.8492 21.0228C19.8492 20.7377 19.9625 20.4643 20.1641 20.2627C20.3657 20.061 20.6391 19.9478 20.9242 19.9478ZM14.4742 24.2478C15.3295 24.2478 16.1498 23.908 16.7546 23.3032C17.3594 22.6984 17.6992 21.8781 17.6992 21.0228C17.6992 20.1675 17.3594 19.3472 16.7546 18.7424C16.1498 18.1376 15.3295 17.7978 14.4742 17.7978C13.6189 17.7978 12.7986 18.1376 12.1938 18.7424C11.589 19.3472 11.2492 20.1675 11.2492 21.0228C11.2492 21.8781 11.589 22.6984 12.1938 23.3032C12.7986 23.908 13.6189 24.2478 14.4742 24.2478ZM14.4742 22.0978C14.1891 22.0978 13.9157 21.9845 13.7141 21.7829C13.5125 21.5813 13.3992 21.3079 13.3992 21.0228C13.3992 20.7377 13.5125 20.4643 13.7141 20.2627C13.9157 20.061 14.1891 19.9478 14.4742 19.9478C14.7593 19.9478 15.0328 20.061 15.2344 20.2627C15.436 20.4643 15.5492 20.7377 15.5492 21.0228C15.5492 21.3079 15.436 21.5813 15.2344 21.7829C15.0328 21.9845 14.7593 22.0978 14.4742 22.0978ZM17.6992 29.6228C17.6992 30.4781 17.3594 31.2984 16.7546 31.9032C16.1498 32.508 15.3295 32.8478 14.4742 32.8478C13.6189 32.8478 12.7986 32.508 12.1938 31.9032C11.589 31.2984 11.2492 30.4781 11.2492 29.6228C11.2492 28.7675 11.589 27.9472 12.1938 27.3424C12.7986 26.7376 13.6189 26.3978 14.4742 26.3978C15.3295 26.3978 16.1498 26.7376 16.7546 27.3424C17.3594 27.9472 17.6992 28.7675 17.6992 29.6228ZM15.5492 29.6228C15.5492 29.3377 15.436 29.0643 15.2344 28.8626C15.0328 28.661 14.7593 28.5478 14.4742 28.5478C14.1891 28.5478 13.9157 28.661 13.7141 28.8626C13.5125 29.0643 13.3992 29.3377 13.3992 29.6228C13.3992 29.9079 13.5125 30.1813 13.7141 30.3829C13.9157 30.5845 14.1891 30.6978 14.4742 30.6978C14.7593 30.6978 15.0328 30.5845 15.2344 30.3829C15.436 30.1813 15.5492 29.9079 15.5492 29.6228ZM20.9242 28.5478C20.6391 28.5478 20.3657 28.661 20.1641 28.8626C19.9625 29.0643 19.8492 29.3377 19.8492 29.6228C19.8492 29.9079 19.9625 30.1813 20.1641 30.3829C20.3657 30.5845 20.6391 30.6978 20.9242 30.6978H31.6742C31.9593 30.6978 32.2328 30.5845 32.4344 30.3829C32.636 30.1813 32.7492 29.9079 32.7492 29.6228C32.7492 29.3377 32.636 29.0643 32.4344 28.8626C32.2328 28.661 31.9593 28.5478 31.6742 28.5478H20.9242Z" fill="#B0E788"/>
</g>
<defs>
<clipPath id="clip0_13935_84521">
<rect width="43" height="43" fill="white" transform="translate(0.5 0.597656)"/>
</clipPath>
</defs>
</svg>
