<svg width="43" height="44" viewBox="0 0 43 44" fill="none" xmlns="http://www.w3.org/2000/svg">
<g clip-path="url(#clip0_13574_10866)">
<path d="M8.36328 14.9316H28.6688V16.8428H8.36328V14.9316Z" fill="#A0DD74"/>
<path d="M8.36328 19.709H21.5022V21.6201H8.36328V19.709Z" fill="#A0DD74"/>
<path d="M8.36328 28.0703H20.3077V29.9814H8.36328V28.0703Z" fill="#A0DD74"/>
<path d="M32.8015 21.1799C31.273 21.1678 29.7764 21.617 28.5073 22.4689C27.2382 23.3209 26.2556 24.5358 25.6879 25.955C25.1202 27.3742 24.9938 28.9317 25.3253 30.4239C25.6568 31.916 26.4308 33.2735 27.546 34.3188L25.2287 37.1497L26.3037 41.4616L30.6754 36.1344C32.0592 36.5435 33.5319 36.5435 34.9157 36.1344L39.2874 41.4616L40.3624 37.1497L38.0451 34.3188C39.1603 33.2735 39.9343 31.916 40.2658 30.4239C40.5973 28.9317 40.4709 27.3742 39.9032 25.955C39.3355 24.5358 38.3529 23.3209 37.0838 22.4689C35.8147 21.617 34.3181 21.1678 32.7896 21.1799H32.8015ZM32.8015 33.9366C31.7865 33.9225 30.7983 33.6086 29.9612 33.0344C29.1241 32.4602 28.4754 31.6513 28.0967 30.7095C27.7181 29.7676 27.6263 28.7348 27.8329 27.741C28.0396 26.7471 28.5355 25.8366 29.2582 25.1237C29.981 24.4109 30.8983 23.9277 31.8949 23.7348C32.8915 23.5419 33.9229 23.6479 34.8595 24.0396C35.796 24.4313 36.5958 25.0911 37.1584 25.936C37.7209 26.781 38.0211 27.7734 38.0212 28.7885C38.0086 30.1624 37.4524 31.4754 36.4742 32.4401C35.4959 33.4049 34.1754 33.943 32.8015 33.9366Z" fill="#A0DD74"/>
<path d="M38.2227 16.3883V20.3778C39.1302 20.965 39.9369 21.6951 40.6115 22.5397V15.373C39.8688 15.8257 39.064 16.1677 38.2227 16.3883Z" fill="#A0DD74"/>
<path d="M4.77561 34.0434V10.1545H27.2073C26.9886 9.37694 26.8761 8.57336 26.8728 7.76562H4.77561C4.14203 7.76563 3.53441 8.01731 3.08641 8.46531C2.6384 8.91332 2.38672 9.52094 2.38672 10.1545V34.0434C2.38672 34.677 2.6384 35.2846 3.08641 35.7326C3.53441 36.1806 4.14203 36.4323 4.77561 36.4323H22.6923L23.3731 35.5962L24.4839 34.2345L24.3764 34.0434H4.77561Z" fill="#A0DD74"/>
<path d="M35.8355 13.7374C39.1339 13.7374 41.8077 11.0636 41.8077 7.76519C41.8077 4.46682 39.1339 1.79297 35.8355 1.79297C32.5371 1.79297 29.8633 4.46682 29.8633 7.76519C29.8633 11.0636 32.5371 13.7374 35.8355 13.7374Z" fill="#A0DD74"/>
</g>
<defs>
<clipPath id="clip0_13574_10866">
<rect width="43" height="43" fill="white" transform="translate(0 0.597656)"/>
</clipPath>
</defs>
</svg>
